<svg xmlns="http://www.w3.org/2000/svg" viewBox="0 0 128 128">
<defs>
  <linearGradient id="navy" x1="0" y1="0" x2="1" y2="1"><stop offset="0" stop-color="#2b6398"/><stop offset=".48" stop-color="#123c6d"/><stop offset="1" stop-color="#061f3e"/></linearGradient>
  <linearGradient id="gold" x1="0" y1="0" x2="1" y2="1"><stop offset="0" stop-color="#fff0a9"/><stop offset=".45" stop-color="#e8bd55"/><stop offset="1" stop-color="#986018"/></linearGradient>
  <linearGradient id="ivory" x1="0" y1="0" x2="0" y2="1"><stop offset="0" stop-color="#fff9de"/><stop offset="1" stop-color="#ead39a"/></linearGradient>
  <radialGradient id="glow"><stop offset="0" stop-color="#f8d46d" stop-opacity=".45"/><stop offset="1" stop-color="#f8d46d" stop-opacity="0"/></radialGradient>
  <filter id="shadow" x="-40%" y="-40%" width="180%" height="190%"><feDropShadow dx="0" dy="8" stdDeviation="7" flood-color="#061a32" flood-opacity=".30"/></filter>
  <filter id="soft" x="-50%" y="-50%" width="200%" height="200%"><feGaussianBlur stdDeviation="7"/></filter>
</defs>
<circle cx="64" cy="64" r="50" fill="url(#glow)"/>
<g filter="url(#shadow)">
<ellipse cx="61" cy="82" rx="45" ry="21" fill="url(#navy)" stroke="#e5b94f" stroke-width="4"/>
<ellipse cx="61" cy="77" rx="34" ry="13" fill="url(#ivory)"/>
<ellipse cx="47" cy="72" rx="8" ry="6" fill="#9b5b25"/><ellipse cx="62" cy="68" rx="8" ry="6" fill="#b06b2a"/><ellipse cx="76" cy="73" rx="8" ry="6" fill="#8e4e20"/>
<path d="M103 42h14v45c0 6-3 9-7 9s-7-3-7-9V42z" fill="url(#ivory)" stroke="#d9aa3e" stroke-width="3"/>
<path d="M106 56h8" stroke="#6fb1c5" stroke-width="11" stroke-linecap="round" opacity=".55"/>
</g></svg>