<svg xmlns="http://www.w3.org/2000/svg" viewBox="0 0 128 128">
<defs>
  <linearGradient id="navy" x1="0" y1="0" x2="1" y2="1"><stop offset="0" stop-color="#2b6398"/><stop offset=".48" stop-color="#123c6d"/><stop offset="1" stop-color="#061f3e"/></linearGradient>
  <linearGradient id="gold" x1="0" y1="0" x2="1" y2="1"><stop offset="0" stop-color="#fff0a9"/><stop offset=".45" stop-color="#e8bd55"/><stop offset="1" stop-color="#986018"/></linearGradient>
  <linearGradient id="ivory" x1="0" y1="0" x2="0" y2="1"><stop offset="0" stop-color="#fff9de"/><stop offset="1" stop-color="#ead39a"/></linearGradient>
  <radialGradient id="glow"><stop offset="0" stop-color="#f8d46d" stop-opacity=".45"/><stop offset="1" stop-color="#f8d46d" stop-opacity="0"/></radialGradient>
  <filter id="shadow" x="-40%" y="-40%" width="180%" height="190%"><feDropShadow dx="0" dy="8" stdDeviation="7" flood-color="#061a32" flood-opacity=".30"/></filter>
  <filter id="soft" x="-50%" y="-50%" width="200%" height="200%"><feGaussianBlur stdDeviation="7"/></filter>
</defs>
<circle cx="64" cy="62" r="52" fill="url(#glow)"/>
<g filter="url(#shadow)">
<path d="M64 14l43 15v29c0 27-16 45-43 57-27-12-43-30-43-57V29l43-15z" fill="url(#navy)" stroke="#e1b24a" stroke-width="4"/>
<path d="M64 22l34 12v23c0 21-12 36-34 47-22-11-34-26-34-47V34l34-12z" fill="none" stroke="#f7db7a" stroke-opacity=".42" stroke-width="2"/>
<path d="M48 60c7 7 12 13 16 20 10-17 20-29 31-38" fill="none" stroke="url(#gold)" stroke-width="9" stroke-linecap="round" stroke-linejoin="round"/>
</g></svg>