<svg xmlns="http://www.w3.org/2000/svg" viewBox="0 0 32 28" fill="none" aria-hidden="true">
  <g fill="currentColor">
    <path d="M5.1 9.8V24h1.4v-11.4l-.45-1.4 1.2-.7.55 1.25V24h1.4V9.8L6.7 8.6 5.1 9.8Z"/>
    <path d="M22.7 9.8V24h1.4v-11.4l-.45-1.4 1.2-.7.55 1.25V24H27V9.8l-1.6-1.2-1.7 1.2Z"/>
    <path d="M9.2 14.1h13.6v9.9c0 .5-.4.9-.9.9H10.1c-.5 0-.9-.4-.9-.9v-9.9Z"/>
    <path d="M16 6.4c-2.7 0-4.95 2-5.4 4.6h10.8C21.95 8.4 19.7 6.4 16 6.4Z"/>
    <path d="M16 3.2C12.2 3.2 9.2 6 8.6 9.7h14.8C22.8 6 19.8 3.2 16 3.2Z"/>
    <path d="M6.8 8.3c-.55 0-1 .45-1 1s.45 1 1 1 1-.45 1-1-.45-1-1-1Zm18.4 0c-.55 0-1 .45-1 1s.45 1 1 1 1-.45 1-1-.45-1-1-1Z"/>
  </g>
  <path fill="currentColor" fill-opacity=".5" d="M16 7.9c1.9 0 3.45 1.4 3.75 3.2H12.25c.3-1.8 1.85-3.2 3.75-3.2Z"/>
  <path fill="currentColor" fill-opacity=".38" d="M14.1 18.4h3.8v5.6h-3.8v-5.6Zm0 0c0-1.05.85-1.9 1.9-1.9s1.9.85 1.9 1.9"/>
</svg>
