<svg xmlns="http://www.w3.org/2000/svg" viewBox="0 0 512 512" fill="none">
  <defs>
    <linearGradient id="lg" x1="0%" y1="0%" x2="100%" y2="100%">
      <stop offset="0%" stop-color="#fff8e8"/>
      <stop offset="100%" stop-color="#c9a85c"/>
    </linearGradient>
    <linearGradient id="shadow" x1="0%" y1="0%" x2="0%" y2="100%">
      <stop offset="0%" stop-color="#000" stop-opacity="0"/>
      <stop offset="100%" stop-color="#000" stop-opacity="0.22"/>
    </linearGradient>
    <filter id="soft" x="-20%" y="-20%" width="140%" height="140%">
      <feDropShadow dx="0" dy="14" stdDeviation="12" flood-color="#000" flood-opacity="0.28"/>
    </filter>
  </defs>
  <ellipse cx="256" cy="430" rx="150" ry="28" fill="url(#shadow)"/>

    <g filter="url(#soft)">
      <path d="M196 300c0-70 26-110 60-110s60 40 60 110v70H196z" fill="#e8d8bc"/>
      <path d="M150 250c-18 36-18 78 0 120" stroke="#d4b88c" stroke-width="28" stroke-linecap="round"/>
      <path d="M362 250c18 36 18 78 0 120" stroke="#d4b88c" stroke-width="28" stroke-linecap="round"/>
      <ellipse cx="256" cy="180" rx="46" ry="18" fill="#fff4dc" opacity=".55"/>
      <path d="M236 150c8-16 24-24 20-24s12 8 20 24" fill="url(#lg)" opacity=".7"/>
    </g>
  </svg>