<?xml version="1.0" encoding="UTF-8"?>
<svg xmlns="http://www.w3.org/2000/svg" viewBox="0 0 112 96" role="img" aria-hidden="true">
  <defs>
    <linearGradient id="g" x1="0%" y1="0%" x2="100%" y2="100%">
      <stop offset="0%" stop-color="#7EC8E3"/>
      <stop offset="100%" stop-color="#3A86A8"/>
    </linearGradient>
    <linearGradient id="hl" x1="0%" y1="0%" x2="0%" y2="100%">
      <stop offset="0%" stop-color="#fff" stop-opacity="0.45"/>
      <stop offset="100%" stop-color="#fff" stop-opacity="0"/>
    </linearGradient>
  </defs>
  <ellipse cx="64" cy="88" rx="34" ry="8" fill="#000" opacity="0.18"/>
  <path d="M40 58V38c0-4 4-6 6-4l4 8V34c0-4 4-6 6-4v22c0 8-10 12-16 8z" fill="url(#g)" stroke="rgba(255,255,255,0.35)" stroke-width="1.2"/><path d="M72 58V40c0-4-4-6-6-4l-4 6V36c0-4-4-6-6-4v22c0 8 10 12 16 8z" fill="url(#g)" stroke="rgba(255,255,255,0.35)" stroke-width="1.2" opacity="0.9"/>
</svg>
