<svg xmlns="http://www.w3.org/2000/svg" viewBox="0 0 512 512" fill="none">
  <defs>
    <linearGradient id="lg" x1="0%" y1="0%" x2="100%" y2="100%">
      <stop offset="0%" stop-color="#fff8e8"/>
      <stop offset="100%" stop-color="#c9a85c"/>
    </linearGradient>
    <linearGradient id="shadow" x1="0%" y1="0%" x2="0%" y2="100%">
      <stop offset="0%" stop-color="#000" stop-opacity="0"/>
      <stop offset="100%" stop-color="#000" stop-opacity="0.22"/>
    </linearGradient>
    <filter id="soft" x="-20%" y="-20%" width="140%" height="140%">
      <feDropShadow dx="0" dy="14" stdDeviation="12" flood-color="#000" flood-opacity="0.28"/>
    </filter>
  </defs>
  <ellipse cx="256" cy="430" rx="150" ry="28" fill="url(#shadow)"/>

    <g filter="url(#soft)">
      <path d="M156 320c0-88 44-132 100-132s100 44 100 132v44H156z" fill="#2f4a3a"/>
      <path d="M196 188c0-62 28-92 60-92s60 30 60 92v176H196z" fill="#3d6248"/>
      <path d="M256 96c-34 0-60 26-60 60v8c22-18 48-26 60-26s38 8 60 26v-8c0-34-26-60-60-60z" fill="#4a7a58"/>
      <rect x="248" y="120" width="16" height="220" rx="4" fill="#d8c18b"/>
      <ellipse cx="256" cy="150" rx="70" ry="24" fill="#fff2c8" opacity=".45"/>
      <path d="M330 150l34 18-8 24-26-42z" fill="#8b5a2b"/>
      <path d="M338 146l8 10-14 6z" fill="#c49a5c"/>
    </g>
  </svg>