<svg xmlns="http://www.w3.org/2000/svg" viewBox="0 0 512 512" fill="none">
  <defs>
    <linearGradient id="lg" x1="0%" y1="0%" x2="100%" y2="100%">
      <stop offset="0%" stop-color="#fff8e8"/>
      <stop offset="100%" stop-color="#c9a85c"/>
    </linearGradient>
    <linearGradient id="shadow" x1="0%" y1="0%" x2="0%" y2="100%">
      <stop offset="0%" stop-color="#000" stop-opacity="0"/>
      <stop offset="100%" stop-color="#000" stop-opacity="0.22"/>
    </linearGradient>
    <filter id="soft" x="-20%" y="-20%" width="140%" height="140%">
      <feDropShadow dx="0" dy="14" stdDeviation="12" flood-color="#000" flood-opacity="0.28"/>
    </filter>
  </defs>
  <ellipse cx="256" cy="430" rx="150" ry="28" fill="url(#shadow)"/>

    <g filter="url(#soft)">
      <rect x="150" y="150" width="212" height="220" rx="20" fill="#f7f0df" stroke="#c8a96a" stroke-width="4"/>
      <rect x="150" y="150" width="212" height="52" rx="20" fill="#6b2f3a"/>
      <circle cx="190" cy="126" r="10" fill="#c8a96a"/>
      <circle cx="322" cy="126" r="10" fill="#c8a96a"/>
      <path d="M330 120c18-10 34-4 34 14 0 24-30 42-54 42s-54-18-54-42c0-18 16-24 34-14" fill="url(#lg)"/>
      <rect x="182" y="224" width="36" height="36" rx="8" fill="#e8dcc4"/>
      <rect x="238" y="224" width="36" height="36" rx="8" fill="#e8dcc4"/>
      <rect x="294" y="224" width="36" height="36" rx="8" fill="#d4b88c"/>
    </g>
  </svg>