<svg xmlns="http://www.w3.org/2000/svg" viewBox="0 0 512 512" fill="none">
  <defs>
    <linearGradient id="lg" x1="0%" y1="0%" x2="100%" y2="100%">
      <stop offset="0%" stop-color="#fff8e8"/>
      <stop offset="100%" stop-color="#c9a85c"/>
    </linearGradient>
    <linearGradient id="shadow" x1="0%" y1="0%" x2="0%" y2="100%">
      <stop offset="0%" stop-color="#000" stop-opacity="0"/>
      <stop offset="100%" stop-color="#000" stop-opacity="0.22"/>
    </linearGradient>
    <filter id="soft" x="-20%" y="-20%" width="140%" height="140%">
      <feDropShadow dx="0" dy="14" stdDeviation="12" flood-color="#000" flood-opacity="0.28"/>
    </filter>
  </defs>
  <ellipse cx="256" cy="430" rx="150" ry="28" fill="url(#shadow)"/>

    <g filter="url(#soft)">
      <path d="M176 300h160v70H176z" fill="#d8c8a8"/>
      <path d="M216 180h80v120h-80z" fill="#efe4cf"/>
      <ellipse cx="256" cy="180" rx="64" ry="36" fill="#f5ead0" stroke="#c8a96a" stroke-width="3"/>
      <rect x="148" y="250" width="20" height="120" rx="6" fill="#d4b88c"/>
      <rect x="344" y="250" width="20" height="120" rx="6" fill="#d4b88c"/>
      <circle cx="380" cy="210" r="34" fill="#f7f0df" stroke="#c8a96a" stroke-width="3"/>
      <path d="M380 194v10M380 226v10M364 210h10M386 210h10" stroke="#8b6a3a" stroke-width="3" stroke-linecap="round"/>
      <rect x="372" y="206" width="16" height="8" rx="2" fill="#6b4f2a"/>
    </g>
  </svg>