<svg xmlns="http://www.w3.org/2000/svg" viewBox="0 0 512 512" fill="none">
  <defs>
    <linearGradient id="lg" x1="0%" y1="0%" x2="100%" y2="100%">
      <stop offset="0%" stop-color="#fff8e8"/>
      <stop offset="100%" stop-color="#c9a85c"/>
    </linearGradient>
    <linearGradient id="shadow" x1="0%" y1="0%" x2="0%" y2="100%">
      <stop offset="0%" stop-color="#000" stop-opacity="0"/>
      <stop offset="100%" stop-color="#000" stop-opacity="0.22"/>
    </linearGradient>
    <filter id="soft" x="-20%" y="-20%" width="140%" height="140%">
      <feDropShadow dx="0" dy="14" stdDeviation="12" flood-color="#000" flood-opacity="0.28"/>
    </filter>
  </defs>
  <ellipse cx="256" cy="430" rx="150" ry="28" fill="url(#shadow)"/>

    <g filter="url(#soft)">
      <path d="M176 140h160v250c-26 10-54 14-80 14s-54-4-80-14V140z" fill="#1f4d3b"/>
      <path d="M256 140v264c26-4 52-10 80-14V140z" fill="#2a634c"/>
      <path d="M196 168h120v12H196z" fill="url(#lg)" opacity=".85"/>
      <ellipse cx="256" cy="250" rx="52" ry="52" fill="none" stroke="#d8c18b" stroke-width="4"/>
      <path d="M150 360h212l-18 28H168z" fill="#8b5a2b"/>
      <path d="M168 388h176l-10 16H178z" fill="#6b4428"/>
    </g>
  </svg>