<svg xmlns="http://www.w3.org/2000/svg" viewBox="0 0 512 512" fill="none">
  <defs>
    <linearGradient id="lg" x1="0%" y1="0%" x2="100%" y2="100%">
      <stop offset="0%" stop-color="#fff8e8"/>
      <stop offset="100%" stop-color="#c9a85c"/>
    </linearGradient>
    <linearGradient id="shadow" x1="0%" y1="0%" x2="0%" y2="100%">
      <stop offset="0%" stop-color="#000" stop-opacity="0"/>
      <stop offset="100%" stop-color="#000" stop-opacity="0.22"/>
    </linearGradient>
    <filter id="soft" x="-20%" y="-20%" width="140%" height="140%">
      <feDropShadow dx="0" dy="14" stdDeviation="12" flood-color="#000" flood-opacity="0.28"/>
    </filter>
  </defs>
  <ellipse cx="256" cy="430" rx="150" ry="28" fill="url(#shadow)"/>

    <g filter="url(#soft)">
      <ellipse cx="256" cy="360" rx="120" ry="28" fill="#4a3828" opacity=".35"/>
      <rect x="170" y="300" width="172" height="56" rx="10" fill="#5a4028"/>
      <path d="M210 300V220c0-30 20-50 46-50s46 20 46 50v80" fill="#d8c8b0"/>
      <ellipse cx="256" cy="206" rx="38" ry="42" fill="#e8d8c4"/>
      <path d="M220 188c8-20 22-30 36-30s28 10 36 30" fill="#4a3828"/>
      <rect x="228" y="268" width="56" height="40" rx="6" fill="#f2ead8" stroke="#c8a96a" stroke-width="2"/>
    </g>
  </svg>